<?xml version="1.0" encoding="UTF-8"?>
<!-- Generator: Adobe Illustrator 18.1.0, SVG Export Plug-In . SVG Version: 6.00 Build 0)  -->
<!DOCTYPE svg PUBLIC "-//W3C//DTD SVG 1.1//EN" "http://www.w3.org/Graphics/SVG/1.1/DTD/svg11.dtd">
<svg version="1.1" id="Warstwa_1" xmlns="http://www.w3.org/2000/svg" xmlns:xlink="http://www.w3.org/1999/xlink" x="0px" y="0px" width="32px" height="30px" viewBox="0 0 32 30" enable-background="new 0 0 32 30" xml:space="preserve">
<path fill="#638B96" d="M27,10c-1.6,0-2.9,0.7-3.8,1.8L10,5.3c0-0.1,0-0.2,0-0.3c0-2.8-2.2-5-5-5S0,2.2,0,5s2.2,5,5,5  c1.2,0,2.3-0.5,3.2-1.2L20.5,15L8.2,21.2C7.3,20.5,6.2,20,5,20c-2.8,0-5,2.2-5,5s2.2,5,5,5s5-2.2,5-5c0-0.1,0-0.2,0-0.3l13.2-6.6  c0.9,1.1,2.3,1.8,3.8,1.8c2.8,0,5-2.2,5-5S29.8,10,27,10"/>
</svg>