<?xml version="1.0" encoding="UTF-8"?>
<!-- Generator: Adobe Illustrator 18.1.0, SVG Export Plug-In . SVG Version: 6.00 Build 0)  -->
<!DOCTYPE svg PUBLIC "-//W3C//DTD SVG 1.1//EN" "http://www.w3.org/Graphics/SVG/1.1/DTD/svg11.dtd">
<svg version="1.1" id="Warstwa_1" xmlns="http://www.w3.org/2000/svg" xmlns:xlink="http://www.w3.org/1999/xlink" x="0px" y="0px" width="576px" height="576px" viewBox="270 -270 576 576" enable-background="new 270 -270 576 576" xml:space="preserve">
<rect x="270" y="-270" fill="#113036" width="576" height="576"/>
<rect x="270" y="-126" fill="#FFFFFF" width="576" height="144"/>
<path fill="#19837E" d="M448.8-63.1h-2l-7.4-11.7l-7.5,11.7H430l8.4-13l-7.6-12h2l6.8,10.7l6.9-10.7h1.9l-7.7,11.9L448.8-63.1z"/>
<path fill="#19837E" d="M466-63.1h-13.7v-25H466v1.6h-11.9v9.5h11.2v1.6h-11.2v10.7H466V-63.1z"/>
<path fill="#19837E" d="M473.4-74v10.9h-1.7v-25h5.9c3.1,0,5.4,0.6,6.9,1.7c1.5,1.1,2.2,2.9,2.2,5.2c0,1.7-0.4,3.1-1.3,4.2  c-0.9,1.2-2.2,2-4,2.5l6.8,11.4h-2.1L479.7-74L473.4-74L473.4-74z M473.4-75.5h4.8c2.1,0,3.7-0.5,4.9-1.4c1.2-0.9,1.7-2.3,1.7-4.2  s-0.6-3.3-1.7-4.2c-1.1-0.9-3-1.3-5.6-1.3h-4.1L473.4-75.5L473.4-75.5z"/>
<path fill="#19837E" d="M513.5-75.6c0,4-1,7.1-3,9.4c-2,2.3-4.7,3.5-8.2,3.5s-6.2-1.2-8.2-3.5s-3-5.5-3-9.4c0-4,1-7.1,3-9.4  c2-2.3,4.7-3.4,8.2-3.4s6.2,1.1,8.2,3.4C512.5-82.7,513.5-79.6,513.5-75.6z M493-75.6c0,3.6,0.8,6.3,2.4,8.3s3.9,2.9,6.9,2.9  s5.3-1,6.9-2.9s2.4-4.7,2.4-8.3s-0.8-6.4-2.4-8.3c-1.6-1.9-3.9-2.9-6.9-2.9s-5.3,1-6.9,2.9C493.9-82,493-79.2,493-75.6z"/>
<path fill="#19837E" d="M534.5-63.1h-2l-7.4-11.7l-7.5,11.7h-1.9l8.4-13l-7.6-12h2l6.8,10.7l6.9-10.7h1.9l-7.7,11.9L534.5-63.1z"/>
<path fill="#19837E" d="M439.9-43.5c2.1,0,3.8,0.5,5.1,1.6s1.9,2.5,1.9,4.4c0,1.3-0.4,2.4-1.2,3.4c-0.8,1-2.1,1.9-3.9,2.7  c2.2,0.9,3.7,1.9,4.6,3c0.9,1.1,1.3,2.4,1.3,3.9c0,2.1-0.7,3.7-2.2,4.9s-3.4,1.8-5.8,1.8c-2.5,0-4.4-0.6-5.8-1.7c-1.3-1.2-2-2.8-2-5  c0-1.5,0.5-2.8,1.4-3.9c0.9-1.1,2.4-2.1,4.4-2.9c-1.8-0.9-3.1-1.8-3.9-2.7c-0.8-1-1.1-2.1-1.1-3.5c0-1.2,0.3-2.2,0.9-3.2  c0.6-0.9,1.4-1.6,2.5-2.1C437.4-43.3,438.6-43.5,439.9-43.5z M433.8-24.3c0,1.6,0.5,2.8,1.6,3.7c1.1,0.9,2.6,1.3,4.5,1.3  c1.9,0,3.4-0.5,4.5-1.4c1.1-0.9,1.7-2.2,1.7-3.7c0-1.4-0.4-2.6-1.3-3.4c-0.9-0.9-2.6-1.8-5.2-2.8c-2.1,0.8-3.6,1.7-4.5,2.7  C434.2-27,433.8-25.7,433.8-24.3z M439.9-42c-1.6,0-2.9,0.4-3.9,1.2s-1.5,1.9-1.5,3.3c0,0.8,0.2,1.5,0.5,2.1  c0.4,0.6,0.9,1.2,1.6,1.7c0.7,0.5,1.8,1.1,3.4,1.7c1.9-0.7,3.2-1.5,4-2.4s1.2-1.9,1.2-3.1c0-1.4-0.5-2.4-1.4-3.2  C442.9-41.6,441.6-42,439.9-42z"/>
<path fill="#19837E" d="M468-30.7c0,4.4-0.7,7.6-2,9.7c-1.3,2.1-3.4,3.2-6.1,3.2c-2.6,0-4.6-1.1-5.9-3.3c-1.4-2.2-2-5.4-2-9.6  c0-4.4,0.7-7.6,2-9.7c1.3-2.1,3.3-3.1,6-3.1c2.6,0,4.6,1.1,6,3.3C467.3-38.1,468-34.9,468-30.7z M453.8-30.7c0,3.9,0.5,6.7,1.5,8.6  c1,1.9,2.6,2.8,4.6,2.8c2.2,0,3.7-1,4.7-2.9s1.5-4.7,1.5-8.5c0-3.7-0.5-6.5-1.5-8.4S462-42,459.9-42c-2.1,0-3.7,1-4.7,2.9  C454.3-37.2,453.8-34.4,453.8-30.7z"/>
<path fill="#19837E" d="M481.6-18.1h-1.7v-18.2c0-1.7,0.1-3.4,0.2-5.1c-0.2,0.2-0.3,0.3-0.5,0.5s-1.9,1.5-5.3,4.2l-1-1.2l6.8-5.1  h1.5V-18.1z"/>
<path fill="#19837E" d="M508-30.7c0,4.4-0.7,7.6-2,9.7c-1.3,2.1-3.4,3.2-6.1,3.2c-2.6,0-4.6-1.1-5.9-3.3c-1.4-2.2-2-5.4-2-9.6  c0-4.4,0.7-7.6,2-9.7c1.3-2.1,3.3-3.1,6-3.1c2.6,0,4.6,1.1,6,3.3C507.3-38.1,508-34.9,508-30.7z M493.7-30.7c0,3.9,0.5,6.7,1.5,8.6  c1,1.9,2.6,2.8,4.6,2.8c2.2,0,3.7-1,4.7-2.9s1.5-4.7,1.5-8.5c0-3.7-0.5-6.5-1.5-8.4s-2.6-2.9-4.7-2.9c-2.1,0-3.7,1-4.7,2.9  C494.2-37.2,493.7-34.4,493.7-30.7z"/>
<path fill="#19837E" d="M536.3-24.5c0,2.1-0.8,3.7-2.3,5c-1.5,1.2-3.6,1.8-6.1,1.8c-3.1,0-5.4-0.3-7-1v-1.7c1.8,0.8,4.1,1.1,6.9,1.1  c2.1,0,3.7-0.5,4.9-1.4c1.2-0.9,1.8-2.2,1.8-3.7c0-0.9-0.2-1.7-0.6-2.4c-0.4-0.6-1-1.2-1.9-1.7c-0.9-0.5-2.2-1.1-4-1.7  c-2.6-0.9-4.3-1.8-5.3-2.8s-1.5-2.4-1.5-4.1c0-1.9,0.7-3.4,2.2-4.6c1.5-1.2,3.3-1.8,5.6-1.8c2.3,0,4.6,0.4,6.6,1.3l-0.6,1.5  c-2.1-0.9-4.1-1.3-5.9-1.3s-3.3,0.4-4.4,1.3c-1.1,0.9-1.6,2-1.6,3.5c0,0.9,0.2,1.7,0.5,2.3s0.9,1.1,1.6,1.6c0.8,0.5,2.1,1,3.9,1.7  c1.9,0.7,3.4,1.3,4.4,2c1,0.6,1.7,1.3,2.1,2.2C536.1-26.7,536.3-25.7,536.3-24.5z"/>
<path fill="#19837E" d="M548.1-18.1h-1.8v-23.3h-8.1V-43h18v1.6h-8.1V-18.1z"/>
<path fill="#19837E" d="M572-26.9h-10.2l-3.5,8.8h-1.9l10-25.1h1.1l9.8,25.1h-2L572-26.9z M562.5-28.5h8.9l-3.4-9  c-0.3-0.7-0.6-1.7-1-2.9c-0.3,1.1-0.6,2.1-1,3L562.5-28.5z"/>
<path fill="#19837E" d="M582.7-29v10.9H581v-25h5.9c3.1,0,5.4,0.6,6.9,1.7c1.5,1.1,2.2,2.9,2.2,5.2c0,1.7-0.4,3.1-1.3,4.2  c-0.9,1.2-2.2,2-4,2.5l6.8,11.4h-2.1L589-29L582.7-29L582.7-29z M582.7-30.5h4.8c2.1,0,3.7-0.5,4.9-1.4c1.2-0.9,1.7-2.3,1.7-4.2  s-0.6-3.3-1.7-4.2c-1.1-0.9-3-1.3-5.6-1.3h-4.1L582.7-30.5L582.7-30.5z"/>
<rect x="387" y="-126" fill="#213D4E" width="19.6" height="144"/>
<rect x="717.4" y="-126" fill="#213D4E" width="19.6" height="144"/>
<path fill="#219E97" d="M749.3,173.5l1.5-10.6c0.1-0.4,0.3-0.8,0.6-0.8h12.8c0.3,0,0.6,0.4,0.6,0.8l1.1,10.6H749.3z M747.4,147  c0.1-0.4,0.3-0.8,0.6-0.8h12.8c0.3,0,0.6,0.4,0.6,0.8l1.1,10.6h-16.7L747.4,147z M722.1,173.5l2.1-10.6c0.1-0.4,0.5-0.8,0.9-0.8  h18.4c0.5,0,0.8,0.4,0.9,0.8l1.6,10.6H722.1z M722.5,154.7c0.1-0.2,0.4-0.2,0.9-0.2h18.1c0.4,0,0.8,0,0.9,0.2l1.6,5.1h-23.5  L722.5,154.7z M720.8,147.1c0.1-0.2,0.4-0.2,0.9-0.2h18.1c0.4,0,0.8,0,0.9,0.2l1.6,5.1h-23.5L720.8,147.1z M702.1,173.5l1.5-10.6  c0.1-0.4,0.3-0.8,0.6-0.8H717c0.3,0,0.6,0.4,0.6,0.8l1.1,10.6H702.1z M701.3,147c0.1-0.4,0.3-0.8,0.6-0.8h12.8  c0.3,0,0.6,0.4,0.6,0.8l1.1,10.6h-16.7L701.3,147z M675.8,167.4l1.3-5.1c0-0.2,0.3-0.2,0.5-0.2h11.3c0.3,0,0.5,0,0.5,0.2l1,5.1  H675.8z M676.1,154.7c0-0.2,0.3-0.2,0.5-0.2h11.3c0.3,0,0.5,0,0.5,0.2l1,5.1h-14.6L676.1,154.7z M674.9,146.8c0-0.2,0.3-0.6,0.5-0.6  h11.1c0.3,0,0.5,0.4,0.5,0.6l1,5.5h-14.4L674.9,146.8z M648.6,167.4l2.1-5.1c0.1-0.2,0.5-0.2,0.9-0.2H670c0.5,0,0.8,0,0.9,0.2  l1.6,5.1H648.6z M630.6,167.4l1.3-5.1c0-0.2,0.3-0.2,0.5-0.2h11.3c0.3,0,0.5,0,0.5,0.2l1,5.1H630.6z M610.7,181.1l2.1-10.6  c0.1-0.4,0.5-0.8,0.9-0.8H632c0.5,0,0.8,0.4,0.9,0.8l1.6,10.6H610.7z M594.7,167.4l1.3-5.1c0-0.2,0.3-0.2,0.5-0.2h11.3  c0.3,0,0.5,0,0.6,0.2l1,5.1H594.7z M557.2,181.1l1.8-10.6c0.2-0.4,0.9-0.8,1.8-0.8H603c0.9,0,1.7,0.4,1.9,0.8l1.6,10.6H557.2z   M540.7,167.4l1.3-5.1c0-0.2,0.3-0.2,0.5-0.2h11.3c0.3,0,0.5,0,0.5,0.2l1,5.1H540.7z M503.6,181.1l1.8-10.6c0.2-0.4,0.9-0.8,1.8-0.8  h42.2c0.9,0,1.7,0.4,1.9,0.8l1.6,10.6H503.6z M486.8,167.4l1.3-5.1c0-0.2,0.3-0.2,0.5-0.2h11.3c0.3,0,0.5,0,0.5,0.2l1,5.1H486.8z   M475.6,181.1l2.1-10.6c0.1-0.4,0.5-0.8,0.9-0.8H497c0.5,0,0.8,0.4,0.9,0.8l1.6,10.6H475.6z M470.1,162.3c0-0.2,0.3-0.2,0.5-0.2  h11.3c0.3,0,0.5,0,0.5,0.2l1,5.1h-14.6L470.1,162.3z M441.6,167.4l2.1-5.1c0.1-0.2,0.5-0.2,0.9-0.2H463c0.5,0,0.8,0,0.9,0.2l1.6,5.1  H441.6z M423.7,167.4l1.3-5.1c0-0.2,0.3-0.2,0.5-0.2h11.3c0.3,0,0.5,0,0.5,0.2l1,5.1H423.7z M391.7,144.6l2.1-5.1  c0.1-0.2,0.4-0.2,0.9-0.2h18.1c0.4,0,0.8,0,0.9,0.2l1.6,5.1H391.7z M390.3,152.2l2.1-5.5c0.1-0.2,0.4-0.6,0.9-0.6h18.1  c0.4,0,0.8,0.4,0.9,0.6l1.6,5.5H390.3z M388,159.8l2.1-5.5c0.1-0.2,0.4-0.6,0.9-0.6h18c0.4,0,0.8,0.4,0.9,0.6l1.6,5.5H388z   M387,172.8l2.1-10.6c0.1-0.4,0.5-0.8,0.9-0.8h18.4c0.5,0,0.8,0.4,0.9,0.8l1.6,10.6H387z M369.1,159.8l1.3-5.5  c0-0.2,0.3-0.6,0.5-0.6h11.3c0.3,0,0.5,0.4,0.6,0.6l1,5.5H369.1z M365.4,172.8l1.5-10.6c0.1-0.4,0.3-0.8,0.6-0.8h12.8  c0.3,0,0.6,0.4,0.6,0.8l1.1,10.6H365.4z M374,146.8c0-0.2,0.3-0.6,0.5-0.6h11.3c0.3,0,0.5,0.4,0.5,0.6l1,5.5h-14.6L374,146.8z   M376.2,139.5c0-0.2,0.3-0.2,0.5-0.2H388c0.3,0,0.5,0,0.5,0.2l1,5.1h-14.6L376.2,139.5z M426,154.7c0.1-0.2,0.5-0.2,1-0.2h20.5  c0.5,0,0.9,0,1,0.2l1.8,5.1h-26.6L426,154.7z M426.6,146.8c0-0.2,0.3-0.6,0.5-0.6h11.1c0.3,0,0.5,0.4,0.5,0.6l1,5.5h-14.4  L426.6,146.8z M428.1,139.2c0-0.2,0.3-0.6,0.5-0.6h11.3c0.3,0,0.5,0.4,0.5,0.6l1,5.5h-14.6L428.1,139.2z M445.1,146.8  c0.1-0.2,0.4-0.6,0.9-0.6h18.1c0.4,0,0.8,0.4,0.9,0.6l1.6,5.5H443L445.1,146.8z M446.1,139.2c0-0.2,0.3-0.6,0.5-0.6h11.3  c0.3,0,0.5,0.4,0.5,0.6l1,5.5h-14.6L446.1,139.2z M453,130.8c0.1-0.2,0.4-0.6,0.9-0.6H472c0.4,0,0.8,0.4,0.9,0.6l1.6,5.5H451  L453,130.8z M476.4,139.2l1,5.5h-14.6l1.3-5.5c0-0.2,0.3-0.6,0.5-0.6h11.3C476.2,138.6,476.4,139,476.4,139.2 M479,130.8  c0.1-0.2,0.4-0.6,0.9-0.6H498c0.4,0,0.8,0.4,0.9,0.6l1.6,5.5H477L479,130.8z M500.6,138.6h11.3c0.3,0,0.5,0.4,0.5,0.6l1,5.5h-14.6  l1.3-5.5C500.1,139,500.3,138.6,500.6,138.6 M505,130.8c0.1-0.2,0.4-0.6,0.9-0.6H524c0.4,0,0.8,0.4,0.9,0.6l1.6,5.5H503L505,130.8z   M531,130.8c0.1-0.2,0.4-0.6,0.9-0.6H550c0.4,0,0.8,0.4,0.9,0.6l1.6,5.5H529L531,130.8z M554,139.2c0-0.2,0.3-0.6,0.5-0.6h11.3  c0.3,0,0.5,0.4,0.5,0.6l1,5.5h-14.6L554,139.2z M556.9,130.8c0.1-0.2,0.4-0.6,0.9-0.6h18.1c0.4,0,0.8,0.4,0.9,0.6l1.6,5.5h-23.5  L556.9,130.8z M582.9,130.8c0.1-0.2,0.4-0.6,0.9-0.6h18.1c0.4,0,0.8,0.4,0.9,0.6l1.6,5.5h-23.5L582.9,130.8z M581.1,159.8l1.3-5.1  c0-0.2,0.3-0.2,0.5-0.2h11.3c0.3,0,0.5,0,0.6,0.2l1,5.1H581.1z M578,162.3c0-0.2,0.3-0.2,0.5-0.2h11.3c0.3,0,0.5,0,0.5,0.2l1,5.1  h-14.6L578,162.3z M563.1,159.8l1.3-5.1c0-0.2,0.3-0.2,0.5-0.2h11.3c0.3,0,0.5,0,0.5,0.2l1,5.1H563.1z M560,162.3  c0-0.2,0.3-0.2,0.5-0.2h11.3c0.3,0,0.5,0,0.5,0.2l1,5.1h-14.6L560,162.3z M571.3,146.2c0.3,0,0.5,0.4,0.5,0.6l1,5.5h-14.4l1.3-5.5  c0-0.2,0.3-0.6,0.5-0.6H571.3z M570.7,144.6l1.3-5.5c0-0.2,0.3-0.6,0.5-0.6h11.3c0.3,0,0.5,0.4,0.5,0.6l1,5.5H570.7z M588.6,144.6  l1.3-5.5c0-0.2,0.3-0.6,0.5-0.6h11.3c0.3,0,0.5,0.4,0.5,0.6l1,5.5H588.6z M589,146.2c0.3,0,0.5,0.4,0.5,0.6l1,5.5h-14.4l1.3-5.5  c0-0.2,0.3-0.6,0.5-0.6H589z M546.4,154.7c0-0.2,0.3-0.2,0.5-0.2h11.3c0.3,0,0.5,0,0.5,0.2l1,5.1h-14.6L546.4,154.7z M540.6,152.2  l1.3-5.5c0-0.2,0.3-0.6,0.5-0.6h11.1c0.3,0,0.5,0.4,0.5,0.6l1,5.5H540.6z M527.1,159.8l1.3-5.1c0-0.2,0.3-0.2,0.5-0.2h11.3  c0.3,0,0.5,0,0.6,0.2l1,5.1H527.1z M524,162.3c0-0.2,0.3-0.2,0.5-0.2h11.3c0.3,0,0.5,0,0.5,0.2l1,5.1h-14.6L524,162.3z M509.2,159.8  l1.3-5.1c0-0.2,0.3-0.2,0.5-0.2h11.3c0.3,0,0.5,0,0.5,0.2l1,5.1H509.2z M506.1,162.3c0-0.2,0.3-0.2,0.5-0.2h11.3  c0.3,0,0.5,0,0.5,0.2l1,5.1h-14.6L506.1,162.3z M518.1,146.2c0.3,0,0.5,0.4,0.5,0.6l1,5.5h-14.4l1.3-5.5c0-0.2,0.3-0.6,0.5-0.6  H518.1z M516.7,144.6l1.3-5.5c0-0.2,0.3-0.6,0.5-0.6h11.3c0.3,0,0.5,0.4,0.6,0.6l1,5.5H516.7z M534.7,144.6l1.3-5.5  c0-0.2,0.3-0.6,0.5-0.6h11.3c0.3,0,0.5,0.4,0.5,0.6l1,5.5H534.7z M535.8,146.2c0.3,0,0.5,0.4,0.5,0.6l1,5.5h-14.4l1.3-5.5  c0-0.2,0.3-0.6,0.5-0.6H535.8z M492.5,154.7c0-0.2,0.3-0.2,0.5-0.2h11.3c0.3,0,0.5,0,0.5,0.2l1,5.1h-14.6L492.5,154.7z M487.5,152.2  l1.3-5.5c0-0.2,0.3-0.6,0.5-0.6h11.1c0.3,0,0.5,0.4,0.5,0.6l1,5.5H487.5z M474.5,154.7c0-0.2,0.3-0.2,0.5-0.2h11.3  c0.3,0,0.5,0,0.5,0.2l1,5.1h-14.6L474.5,154.7z M480.8,144.6l1.3-5.5c0-0.2,0.3-0.6,0.5-0.6h11.3c0.3,0,0.5,0.4,0.5,0.6l1,5.5H480.8  z M469.8,159.8h-14.6l1.3-5.1c0-0.2,0.3-0.2,0.5-0.2h11.3c0.3,0,0.5,0,0.5,0.2L469.8,159.8z M469.8,152.2l1.3-5.5  c0-0.2,0.3-0.6,0.5-0.6h11.1c0.3,0,0.5,0.4,0.5,0.6l1,5.5H469.8z M607.2,146.8l1,5.5h-14.4l1.3-5.5c0-0.2,0.3-0.6,0.5-0.6h11.1  C607,146.2,607.2,146.6,607.2,146.8 M608.9,130.8c0.1-0.2,0.4-0.6,0.9-0.6h18.1c0.4,0,0.8,0.4,0.9,0.6l1.6,5.5h-23.5L608.9,130.8z   M634.9,130.8c0.1-0.2,0.4-0.6,0.9-0.6h18.1c0.4,0,0.8,0.4,0.9,0.6l1.6,5.5h-23.5L634.9,130.8z M657.1,139.2l1,5.5h-14.6l1.3-5.5  c0-0.2,0.3-0.6,0.5-0.6h11.3C656.9,138.6,657.1,139,657.1,139.2 M646.9,152.2l2.1-5.5c0.1-0.2,0.4-0.6,0.9-0.6H668  c0.4,0,0.8,0.4,0.9,0.6l1.6,5.5H646.9z M638.1,154.7c0.1-0.2,0.7-0.2,1.3-0.2h27c0.7,0,1.2,0,1.3,0.2l2.3,5.1h-35L638.1,154.7z   M629.2,152.2l1.3-5.5c0-0.2,0.3-0.6,0.5-0.6h11.1c0.3,0,0.5,0.4,0.5,0.6l1,5.5H629.2z M617,159.8l1.3-5.1c0-0.2,0.3-0.2,0.5-0.2  h11.3c0.3,0,0.5,0,0.5,0.2l1,5.1H617z M613.9,162.3c0-0.2,0.3-0.2,0.5-0.2h11.3c0.3,0,0.5,0,0.6,0.2l1,5.1h-14.6L613.9,162.3z   M612.2,154.5c0.3,0,0.5,0,0.5,0.2l1,5.1h-14.6l1.3-5.1c0-0.2,0.3-0.2,0.5-0.2H612.2z M625.5,144.6l1.3-5.5c0-0.2,0.3-0.6,0.5-0.6  h11.3c0.3,0,0.5,0.4,0.5,0.6l1,5.5H625.5z M607.5,144.6l1.3-5.5c0-0.2,0.3-0.6,0.5-0.6h11.3c0.3,0,0.5,0.4,0.5,0.6l1,5.5H607.5z   M612.8,146.8c0-0.2,0.3-0.6,0.5-0.6h11.1c0.3,0,0.5,0.4,0.5,0.6l1,5.5h-14.4L612.8,146.8z M662.7,139.2c0.1-0.2,0.4-0.6,0.9-0.6  h18.1c0.4,0,0.8,0.4,0.9,0.6l1.6,5.5h-23.5L662.7,139.2z M718.6,139.2c0.1-0.2,0.4-0.6,0.9-0.6h18.1c0.4,0,0.8,0.4,0.9,0.6l1.6,5.5  h-23.5L718.6,139.2z M810.2,186l-26.8-66.9c-0.7-2.1-2.9-3.3-5.3-3.3h-439c-2.6,0-4.8,1.4-5.4,3.7l-19.8,67c0,0.1-2,16.7-2,16.7h0.2  h499.6L810.2,186z"/>
<path fill="#219E97" d="M299.4,227c0.3-6.6,6.1-12.3,16.2-16.4l-3.3-6.7h499.4l-0.1,0.2l-5.1,13.7c-1.4,4.1-3.5,7.3-7.9,7.3H378.2  l-35.7-7.1c-0.6-0.1-1.3-0.1-1.9,0.1l-17.4,5c-1.8-1.4-3.2-3.3-4-5.2l-1.9-3.8c-8.5,3.4-13.4,8-13.7,13.1c-0.2,3.4,1.8,6.7,5.2,9.3  l2.2-6.9c0.3-1,1.1-1.7,2.2-2.1l9.9-2.8l17.4-5c0.6-0.2,1.3-0.2,1.9-0.1l35.7,7.1l7.8,1.6c3.1,0.6,5.7,2.5,7,5.1L401,249  c0.9,1.7,0,3.6-1.9,4.3l-29.6,10.5c-0.7,0.3-1.5,0.3-2.2,0.1l-58.7-15c-1.9-0.5-3-2.3-2.4-4l1.4-4.5  C302.3,236.9,299.2,232,299.4,227"/>
<path fill="#219E97" d="M413-181.5l-2.4-3.2h1c0.1,0,0.1,0,0.2,0l0.1,0.1l1.9,2.6c0-0.1,0.1-0.1,0.1-0.2l1.8-2.4l0.1-0.1h0.1h0.9  l-2.4,3.1l2.5,3.4h-1c-0.1,0-0.1,0-0.2-0.1l-0.1-0.1l-1.9-2.7c0,0.1-0.1,0.1-0.1,0.2l-1.9,2.6l-0.1,0.1c0,0-0.1,0.1-0.2,0.1h-0.9  L413-181.5z"/>
<polygon fill="#219E97" points="422.2,-184.7 422.2,-184 418.7,-184 418.7,-181.8 421.6,-181.8 421.6,-181.1 418.7,-181.1   418.7,-178.9 422.2,-178.9 422.2,-178.2 417.8,-178.2 417.8,-184.7 "/>
<path fill="#219E97" d="M424.7-181.5h1c0.3,0,0.5,0,0.8-0.1c0.2-0.1,0.4-0.2,0.5-0.3s0.3-0.3,0.3-0.4c0.1-0.2,0.1-0.3,0.1-0.5  c0-0.4-0.1-0.7-0.4-0.9c-0.3-0.2-0.7-0.3-1.3-0.3h-1.1v2.5H424.7z M424.7-180.9v2.7h-1v-6.5h2c0.5,0,0.9,0,1.2,0.1s0.6,0.2,0.8,0.4  c0.2,0.2,0.4,0.3,0.5,0.6c0.1,0.2,0.2,0.5,0.2,0.8c0,0.2,0,0.4-0.1,0.6c-0.1,0.2-0.2,0.4-0.4,0.5c-0.2,0.2-0.3,0.3-0.6,0.4  c-0.2,0.1-0.5,0.2-0.7,0.3c0.1,0.1,0.2,0.2,0.3,0.3l2.1,2.6h-0.9c-0.2,0-0.3-0.1-0.4-0.2l-1.9-2.3c-0.1-0.1-0.1-0.1-0.2-0.2  c-0.1,0-0.2,0-0.3,0h-0.6V-180.9z"/>
<path fill="#219E97" d="M435.6-181.4c0-0.4-0.1-0.8-0.2-1.1c-0.1-0.3-0.3-0.6-0.5-0.8c-0.2-0.2-0.5-0.4-0.8-0.5s-0.7-0.2-1.1-0.2  c-0.4,0-0.7,0.1-1.1,0.2c-0.3,0.1-0.6,0.3-0.8,0.5c-0.2,0.2-0.4,0.5-0.5,0.8c-0.1,0.3-0.2,0.7-0.2,1.1c0,0.4,0.1,0.8,0.2,1.1  c0.1,0.3,0.3,0.6,0.5,0.8c0.2,0.2,0.5,0.4,0.8,0.5s0.7,0.2,1.1,0.2c0.4,0,0.7-0.1,1.1-0.2c0.3-0.1,0.6-0.3,0.8-0.5  c0.2-0.2,0.4-0.5,0.5-0.8C435.5-180.7,435.6-181,435.6-181.4 M436.6-181.4c0,0.5-0.1,0.9-0.3,1.3c-0.2,0.4-0.4,0.8-0.7,1.1  c-0.3,0.3-0.7,0.5-1.1,0.7c-0.4,0.2-0.9,0.2-1.5,0.2c-0.5,0-1-0.1-1.5-0.2c-0.4-0.2-0.8-0.4-1.1-0.7c-0.3-0.3-0.6-0.6-0.7-1.1  c-0.2-0.4-0.3-0.9-0.3-1.3c0-0.5,0.1-0.9,0.3-1.3c0.2-0.4,0.4-0.8,0.7-1.1s0.7-0.5,1.1-0.7c0.4-0.2,0.9-0.2,1.5-0.2  c0.5,0,1,0.1,1.5,0.2c0.4,0.2,0.8,0.4,1.1,0.7s0.6,0.6,0.7,1.1C436.5-182.4,436.6-181.9,436.6-181.4"/>
<path fill="#219E97" d="M439.5-181.5l-2.4-3.2h1c0.1,0,0.1,0,0.2,0l0.1,0.1l1.9,2.6c0-0.1,0.1-0.1,0.1-0.2l1.8-2.4l0.1-0.1h0.1h0.9  l-2.4,3.1l2.5,3.4h-1c-0.1,0-0.1,0-0.2-0.1l-0.1-0.1l-1.9-2.7c0,0.1-0.1,0.1-0.1,0.2l-1.9,2.6l-0.1,0.1c0,0-0.1,0.1-0.2,0.1H437  L439.5-181.5z"/>
<path fill="#219E97" d="M708.8,28.5c0,12.1-10.9,22-24.3,22l-245.2,0.8c-13.4,0-24.3-9.8-24.3-22l-3.4-165c0-12.1,10.9-22,24.3-22  H687c13.4,0,24.3,9.8,24.3,22L708.8,28.5z M716.5-166.1H411.1c-7.1,0-12.9,5.1-12.9,11.6l3.4,209.4c0,6.4,5.8,11.5,12.9,11.5h296.2  c7.1,0,12.9-5.1,12.9-11.6l5.9-209.4C729.4-161,723.6-166.1,716.5-166.1"/>
<path fill="#219E97" d="M724.4,54.8c0,6.8-6.2,12.3-13.7,12.3H414.5c-7.6,0-13.7-5.5-13.7-12.3l-3.4-209.4c0-6.8,6.2-12.3,13.7-12.3  h305.4c7.6,0,13.7,5.4,13.7,12.3L724.4,54.8z M405.7-187.4h91.6v11.4h-91.6L405.7-187.4L405.7-187.4z M744.6-180.3  c0.2-9.7-8.4-17.7-19.2-17.7h-328c-10.7,0-19.4,8-19.2,17.8c-2,90.7-0.6,176.4,5.9,254.7c0.2,9.4,8.7,17.1,19.2,17.1  c21.2,0.7,42.4,1.3,63.5,1.7c-21,5.8-34.7,13.4-37.2,21.9H696c-2.5-8.5-16.3-16.1-37.4-21.9c20.5-0.4,41-1,61.5-1.7  c10.4,0,19-7.6,19.2-17.1C744.8-8.4,746.3-93.4,744.6-180.3"/>
<image overflow="visible" width="495" height="518" xlink:href="A0B8BB18.jpg" transform="matrix(0.7499 0 0 0.7499 883 -185.2514)">
</image>
</svg>